# xmcd
#
# Track frame offsets: 
#        150
#        20077
#        37617
#        51597
#        85075
#        107150
#        132070
#        154292
#
# Disc length: 2258 seconds
#
# Revision: 7
# Processed by: cddbd v1.5.2PL0 Copyright (c) Steve Scherf et al.
# Submitted via: ExactAudioCopyFreeDBPlugin 1.0
#
DISCID=6008d008
DTITLE=Gary Moore - Back On The Streets
DYEAR=1978
DGENRE=Hard Rock
TTITLE0=Back On The Streets
TTITLE1=Don't Believe A Word
TTITLE2=Fanatical Fascists
TTITLE3=Flight Of The Snow Moose
TTITLE4=Hurricane
TTITLE5=Song For Donna
TTITLE6=What Would You Rather Bee Or A Wasp
TTITLE7=Parisienne Walkways
EXTD=
EXTT0=
EXTT1=
EXTT2=
EXTT3=
EXTT4=
EXTT5=
EXTT6=
EXTT7=
PLAYORDER=
